<?xml version="1.0" encoding="UTF-8" ?>
<svg version="1.1" width="372" height="60" viewBox="0 708 372 60" xmlns="http://www.w3.org/2000/svg" shape-rendering="crispEdges">
<rect x="0" y="708" width="372" height="12" fill="#4B692F" />
<rect x="0" y="720" width="156" height="12" fill="#4B692F" />
<rect x="156" y="720" width="12" height="12" fill="#6D8952" />
<rect x="168" y="720" width="72" height="12" fill="#4B692F" />
<rect x="240" y="720" width="48" height="12" fill="#6D8952" />
<rect x="288" y="720" width="84" height="12" fill="#4B692F" />
<rect x="0" y="732" width="36" height="36" fill="#4B692F" />
<rect x="36" y="732" width="12" height="12" fill="#6D8952" />
<rect x="48" y="732" width="48" height="12" fill="#4B692F" />
<rect x="96" y="732" width="24" height="12" fill="#6D8952" />
<rect x="120" y="732" width="24" height="36" fill="#4B692F" />
<rect x="144" y="732" width="12" height="12" fill="#6D8952" />
<rect x="156" y="732" width="72" height="12" fill="#4B692F" />
<rect x="228" y="732" width="12" height="12" fill="#6D8952" />
<rect x="240" y="732" width="84" height="36" fill="#4B692F" />
<rect x="324" y="732" width="12" height="12" fill="#6D8952" />
<rect x="336" y="732" width="36" height="12" fill="#4B692F" />
<rect x="36" y="744" width="12" height="24" fill="#4B692F" />
<rect x="48" y="744" width="12" height="12" fill="#6D8952" />
<rect x="60" y="744" width="60" height="24" fill="#4B692F" />
<rect x="144" y="744" width="48" height="24" fill="#4B692F" />
<rect x="192" y="744" width="24" height="12" fill="#6D8952" />
<rect x="216" y="744" width="24" height="24" fill="#4B692F" />
<rect x="324" y="744" width="12" height="24" fill="#4B692F" />
<rect x="336" y="744" width="12" height="12" fill="#6D8952" />
<rect x="348" y="744" width="24" height="24" fill="#4B692F" />
<rect x="48" y="756" width="12" height="12" fill="#4B692F" />
<rect x="192" y="756" width="24" height="12" fill="#4B692F" />
<rect x="336" y="756" width="12" height="12" fill="#4B692F" />
</svg>