<svg xmlns="http://www.w3.org/2000/svg" version="1.1" xmlns:xlink="http://www.w3.org/1999/xlink" width="512" height="512" x="0" y="0" viewBox="0 0 512 512" style="enable-background:new 0 0 512 512" xml:space="preserve" class=""><g><path d="M256 99.64c-79.788 0-144.7 64.912-144.7 144.7s64.912 144.7 144.7 144.7 144.7-64.912 144.7-144.7S335.788 99.64 256 99.64Zm0 264.452A119.752 119.752 0 1 1 375.752 244.34 119.887 119.887 0 0 1 256 364.092Z" fill="#000000" opacity="1" data-original="#000000" class=""></path><path d="m502.071 228.615-23.289-11.09A59.713 59.713 0 0 1 452 135.086l12.322-22.66a17.417 17.417 0 0 0-18.486-25.445L420.473 91.7a59.715 59.715 0 0 1-70.127-50.95L347 15.173a17.417 17.417 0 0 0-29.91-9.72l-17.749 18.723A59.168 59.168 0 0 1 256 42.813a59.168 59.168 0 0 1-43.341-18.637L194.915 5.453a17.417 17.417 0 0 0-29.91 9.719l-3.351 25.577A59.714 59.714 0 0 1 91.528 91.7l-25.36-4.718a17.418 17.418 0 0 0-18.487 25.444L60 135.086a59.166 59.166 0 0 1 4.332 46.979 59.164 59.164 0 0 1-31.118 35.46l-23.285 11.09a17.417 17.417 0 0 0 0 31.45l23.289 11.09a59.167 59.167 0 0 1 31.118 35.46A59.165 59.165 0 0 1 60 353.594l-12.318 22.661A17.417 17.417 0 0 0 66.168 401.7l25.359-4.717a59.713 59.713 0 0 1 70.127 50.95l3.351 25.576a17.271 17.271 0 0 0 11.887 14.3 17.606 17.606 0 0 0 5.447.87 17.269 17.269 0 0 0 12.576-5.453l17.744-18.722a59.714 59.714 0 0 1 86.682 0l17.744 18.722A17.417 17.417 0 0 0 347 473.508l3.351-25.576a59.713 59.713 0 0 1 70.126-50.95l25.36 4.717a17.417 17.417 0 0 0 18.487-25.443L452 353.594a59.713 59.713 0 0 1 26.786-82.439l23.289-11.09a17.417 17.417 0 0 0 0-31.45Zm-34.015 20.016a84.659 84.659 0 0 0-37.977 116.882l4.767 8.766-9.811-1.825a84.662 84.662 0 0 0-99.426 72.237l-1.3 9.9-6.864-7.243a84.662 84.662 0 0 0-122.9 0l-6.864 7.243-1.3-9.9a84.662 84.662 0 0 0-99.426-72.237l-9.811 1.825 4.767-8.766a83.885 83.885 0 0 0 6.143-66.607 83.88 83.88 0 0 0-44.12-50.275l-9.01-4.291 9.01-4.29a83.885 83.885 0 0 0 44.12-50.275 83.884 83.884 0 0 0-6.143-66.607l-4.757-8.768 9.811 1.825a83.88 83.88 0 0 0 65.244-14.741 83.881 83.881 0 0 0 34.182-57.5l1.3-9.895 6.864 7.243A83.882 83.882 0 0 0 256 67.761a83.882 83.882 0 0 0 61.449-26.424l6.864-7.243 1.3 9.895a83.881 83.881 0 0 0 34.182 57.5 83.886 83.886 0 0 0 65.244 14.741l9.811-1.825-4.767 8.767a84.659 84.659 0 0 0 37.973 116.878l9.01 4.29Z" fill="#000000" opacity="1" data-original="#000000" class=""></path></g></svg>